<svg xmlns="http://www.w3.org/2000/svg" xml:space="preserve" width="655.359" height="655.359" style="shape-rendering:geometricPrecision;text-rendering:geometricPrecision;image-rendering:optimizeQuality;fill-rule:evenodd;clip-rule:evenodd" viewBox="0 0 6.827 6.827"><defs><clipPath id="id0"><path d="M3.413 0a3.413 3.413 0 1 1 0 6.827 3.413 3.413 0 0 1 0-6.827z"/></clipPath><style>.fil1{fill:#1e88e5}.fil6{fill:#ffa000}.fil5{fill:#ffb300}</style></defs><g id="Layer_x0020_1"><path d="M3.413 0a3.413 3.413 0 1 1 0 6.827 3.413 3.413 0 0 1 0-6.827z" style="fill:#42a5f5"/><g style="clip-path:url(#id0)"><g id="_457199024"><path id="_4432843121" class="fil1" d="M4.373 1.733 8.16 5.52l.003.74-3.786-3.787z"/><path id="_443284384" class="fil1" d="m4.377 2.473 3.786 3.786-.642-.367-3.787-3.786z"/><path id="_443286976" class="fil1" d="m3.43 2.067 3.786 3.787-.714.194-3.786-3.786z"/><path id="_443286664" class="fil1" d="m2.067 3.397 3.787 3.786.194.714L2.262 4.11z"/><path id="_443286736" class="fil1" d="m2.473 2.45 3.786 3.786-.367.643-3.786-3.787z"/><path id="_443286688" class="fil1" d="M4.248 2.615 8.035 6.4l.037.041.036.044.034.045.032.047.03.049.026.05.025.052.022.054.02.056.017.057.014.057.011.058.009.058.005.057.002.058v.057l-.004.056-.006.056-.009.056-.011.055-.015.054-.016.053-.02.052-.021.051-.024.05-.026.049-.029.047-.03.046-.034.045-.035.043-.037.041-.04.04-.041.037-.043.036-.046.034-.047.032-.048.03-.051.026-.052.025-.054.022-.055.02-.057.017-.056.014-.056.01-.055.009-.056.005-.055.003h-.055l-.054-.003-.054-.005-.054-.008-.053-.01-.052-.012-.052-.015-.05-.018-.05-.02-.049-.021-.048-.024-.046-.027-.045-.028-.044-.03-.043-.033-.04-.034L2.65 4.281l.041.034.043.032.043.03.046.03.046.025.048.024.049.022.05.02.05.017.051.015.053.013.053.01.053.008.054.005.055.003h.055l.055-.003.056-.005.055-.009.056-.01.055-.014.057-.017.056-.02.054-.022.052-.025.05-.027.05-.03.046-.031.045-.034.044-.036.04-.038.04-.04.038-.04.035-.043.033-.045.03-.046.03-.047.026-.05.024-.05.021-.05.02-.053.016-.053.014-.054.012-.054.009-.056.006-.056.003-.057v-.057l-.002-.057-.005-.057-.008-.058-.01-.058-.015-.058-.017-.057-.02-.055-.022-.054-.025-.052-.027-.05-.03-.05-.031-.046-.034-.046-.036-.043z"/><path id="_443286760" class="fil1" d="M5.093 4.373 8.88 8.16l-.74.003-3.786-3.786z"/><path id="_443286832" class="fil1" d="m2.262 4.11 3.786 3.787-.715-.188-3.786-3.787z"/><path id="_443286880" class="fil1" d="M4.11 4.565 7.898 8.35l-.188.715L3.922 5.28z"/><path id="_443287000" class="fil1" d="m5.28 2.904 3.786 3.787-.52.525L4.759 3.43z"/><path id="_443287072" class="fil1" d="M3.092 4.72 6.88 8.508l-.64.373-3.786-3.787z"/><path id="_443286520" class="fil1" d="m4.72 3.734 3.787 3.787.373.639-3.787-3.787z"/><path id="_457199384" class="fil1" d="m4.373 1.733.004.74-.643-.367.64-.373zm.192.983.715.188-.52.526-.195-.714zm-1.456-.417a1.155 1.155 0 1 1 .608 2.229 1.155 1.155 0 0 1-.608-2.23zm-.205-.752.526.52-.714.195.188-.715zm1.817 2.187.372.64-.74.003.368-.643zm-2.27.62.641.367-.639.372-.003-.74zm1.66.21-.189.716-.525-.52.714-.195zM2.067 3.398l.195.714-.715-.189.52-.525zm-.334-.944.74-.003-.367.642-.373-.639z"/></g></g><path d="M3.413 0a3.413 3.413 0 1 1 0 6.827 3.413 3.413 0 0 1 0-6.827z" style="fill:none"/><circle transform="matrix(.74635 -.20355 .20355 .74635 3.413 3.413)" r="1.493" style="fill:#ff6f00"/><path d="M3.11 2.299c.1-.028.203-.041.303-.041v2.31a1.156 1.156 0 0 1-.304-2.27z" style="fill:#ff7a0d"/><path class="fil5" d="m2.904 1.547.526.52-.714.195z"/><path class="fil6" d="m3.922 5.28.189-.715-.714.194zM4.373 1.733l.004.74-.643-.367z"/><path class="fil5" d="m2.453 5.093.64-.372-.643-.367z"/><path class="fil6" d="m5.28 2.904-.52.526-.195-.714z"/><path class="fil5" d="m1.547 3.922.715.189-.195-.714z"/><path class="fil6" d="m5.093 4.373-.74.004.368-.643z"/><path class="fil5" d="m1.733 2.453.373.64.367-.643z"/></g></svg>